<svg xmlns="http://www.w3.org/2000/svg" viewBox="0 0 64 64">
  <defs>
    <linearGradient id="tile" x1="8" y1="4" x2="56" y2="60">
      <stop offset="0%" stop-color="#22d3ee"/>
      <stop offset="42%" stop-color="#14b8a6"/>
      <stop offset="100%" stop-color="#1d4ed8"/>
    </linearGradient>
    <linearGradient id="shield" x1="18" y1="11" x2="48" y2="54">
      <stop offset="0%" stop-color="#ecfeff" stop-opacity="0.96"/>
      <stop offset="45%" stop-color="#a7f3d0" stop-opacity="0.88"/>
      <stop offset="100%" stop-color="#38bdf8" stop-opacity="0.82"/>
    </linearGradient>
    <linearGradient id="sheen" x1="18" y1="10" x2="48" y2="48">
      <stop offset="0%" stop-color="#ffffff" stop-opacity="0.72"/>
      <stop offset="100%" stop-color="#ffffff" stop-opacity="0"/>
    </linearGradient>
    <filter id="shadow" x="-20%" y="-20%" width="140%" height="150%">
      <feDropShadow dx="0" dy="5" stdDeviation="4" flood-color="#020617" flood-opacity="0.36"/>
    </filter>
    <clipPath id="clip">
      <path d="M32 10.5 48.5 16.5v12.2c0 11-6.9 19.2-16.5 24.6-9.6-5.4-16.5-13.6-16.5-24.6V16.5Z"/>
    </clipPath>
  </defs>
  <rect x="2" y="2" width="60" height="60" rx="17" fill="#060a12"/>
  <rect x="5" y="5" width="54" height="54" rx="15" fill="url(#tile)" filter="url(#shadow)"/>
  <path d="M15.5 45.5c8.5 8.5 23.5 9.2 32.8.8" fill="none" stroke="#ecfeff" stroke-opacity="0.36" stroke-width="1.1" stroke-linecap="round"/>
  <g clip-path="url(#clip)">
    <path d="M32 10.5 48.5 16.5v12.2c0 11-6.9 19.2-16.5 24.6-9.6-5.4-16.5-13.6-16.5-24.6V16.5Z" fill="url(#shield)"/>
    <path d="M32 10.5 48.5 16.5v8.2c-8.2 3.4-23.1 3.4-33 0v-8.2Z" fill="url(#sheen)"/>
  </g>
  <path d="M32 10.5 48.5 16.5v12.2c0 11-6.9 19.2-16.5 24.6-9.6-5.4-16.5-13.6-16.5-24.6V16.5Z" fill="none" stroke="#ecfeff" stroke-opacity="0.5" stroke-width="0.9"/>
  <path d="M23.5 32.2 29.6 38.1 41.2 25.3" fill="none" stroke="#06111f" stroke-width="4.2" stroke-linecap="round" stroke-linejoin="round"/>
  <circle cx="46.5" cy="17.5" r="1.5" fill="#ecfeff"/>
  <circle cx="17.5" cy="43.5" r="1.35" fill="#ecfeff"/>
</svg>
